<svg width="762" height="490" viewBox="0 0 762 490" fill="none" xmlns="http://www.w3.org/2000/svg">
<path d="M97.4776 435.788C87.792 435.788 78.8858 434.118 70.7588 430.778C62.7432 427.327 55.8409 422.651 50.0518 416.75C44.3741 410.739 39.9209 403.669 36.6924 395.542C33.4639 387.416 31.8496 378.676 31.8496 369.325C31.8496 359.862 33.4082 351.234 36.5254 343.441C39.7539 335.648 44.2071 328.968 49.8848 323.402C55.6739 317.724 62.5762 313.327 70.5918 310.209C78.7188 307.092 87.6807 305.534 97.4776 305.534H116.515V328.245H97.4776C91.2432 328.245 85.4542 329.358 80.1104 331.584C74.878 333.7 70.3135 336.65 66.417 340.435C62.6319 344.22 59.626 348.785 57.3995 354.128C55.2842 359.361 54.2266 365.039 54.2266 371.162C54.2266 377.285 55.2842 382.907 57.3995 388.028C59.5147 393.149 62.4649 397.602 66.25 401.387C70.0352 405.061 74.5997 407.956 79.9434 410.071C85.2872 412.075 91.1319 413.077 97.4776 413.077H116.515V435.788H97.4776ZM121.162 435.788V305.534H143.706V413.077H179.108V435.788H121.162ZM184.04 435.788V305.534H206.751V435.788H184.04ZM279.995 435.788C270.309 435.788 261.403 434.118 253.276 430.778C245.261 427.327 238.358 422.651 232.569 416.75C226.891 410.739 222.438 403.669 219.21 395.542C215.981 387.416 214.367 378.676 214.367 369.325C214.367 359.862 215.926 351.234 219.043 343.441C222.271 335.648 226.724 328.968 232.402 323.402C238.191 317.724 245.094 313.327 253.109 310.209C261.236 307.092 270.198 305.534 279.995 305.534H299.032V328.245H279.995C273.761 328.245 267.971 329.358 262.628 331.584C257.395 333.7 252.831 336.65 248.934 340.435C245.149 344.22 242.143 348.785 239.917 354.128C237.802 359.361 236.744 365.039 236.744 371.162C236.744 377.285 237.802 382.907 239.917 388.028C242.032 393.149 244.982 397.602 248.767 401.387C252.553 405.061 257.117 407.956 262.461 410.071C267.804 412.075 273.649 413.077 279.995 413.077H299.032V435.788H279.995ZM357.952 383.185L327.559 429.943C326 432.503 324.052 434.285 321.714 435.287C319.488 436.177 317.094 436.623 314.534 436.623C311.639 436.623 309.301 435.621 307.52 433.617C305.739 431.613 304.848 428.885 304.848 425.434V305.534H327.559V393.539L383.334 305.534H410.387L371.478 362.979L424.582 435.788H393.855L357.952 383.185ZM514.971 358.47V435.788H486.75C477.064 435.788 468.213 434.118 460.198 430.778C452.182 427.327 445.28 422.651 439.491 416.75C433.702 410.739 429.193 403.669 425.964 395.542C422.736 387.416 421.122 378.676 421.122 369.325C421.122 359.862 422.68 351.234 425.797 343.441C429.026 335.648 433.479 328.968 439.157 323.402C444.946 317.724 451.848 313.327 459.864 310.209C467.991 307.092 476.953 305.534 486.75 305.534H505.787V328.245H486.75C480.515 328.245 474.782 329.358 469.549 331.584C464.317 333.7 459.752 336.65 455.856 340.435C452.071 344.22 449.065 348.785 446.838 354.128C444.723 359.361 443.666 365.039 443.666 371.162C443.666 377.285 444.723 382.907 446.838 388.028C448.954 393.149 451.904 397.602 455.689 401.387C459.474 405.061 463.983 407.956 469.215 410.071C474.559 412.075 480.404 413.077 486.75 413.077H493.596V381.014H463.204V358.47H514.971ZM589.108 435.788H524.482V305.534H588.106V328.245H547.193V358.47H582.428V381.014H547.193V413.077H589.108V435.788ZM659.273 435.788C649.699 435.788 640.849 434.118 632.722 430.778C624.706 427.327 617.804 422.595 612.015 416.583C606.226 410.572 601.717 403.558 598.488 395.542C595.26 387.416 593.646 378.676 593.646 369.325C593.646 359.973 595.204 351.401 598.321 343.608C601.55 335.815 606.003 329.08 611.681 323.402C617.47 317.724 624.372 313.327 632.388 310.209C640.515 307.092 649.477 305.534 659.273 305.534H663.114C673.022 305.534 681.984 307.148 690 310.376C698.127 313.494 705.029 317.891 710.707 323.569C716.496 329.247 720.949 335.982 724.066 343.775C727.184 351.568 728.742 360.084 728.742 369.325C728.742 378.676 727.128 387.416 723.899 395.542C720.671 403.558 716.107 410.572 710.206 416.583C704.417 422.595 697.515 427.327 689.499 430.778C681.483 434.118 672.689 435.788 663.114 435.788H659.273ZM659.273 328.245C653.039 328.245 647.306 329.302 642.073 331.417C636.841 333.533 632.276 336.483 628.38 340.268C624.595 344.053 621.589 348.562 619.362 353.794C617.247 359.027 616.189 364.816 616.189 371.162C616.189 377.285 617.247 382.907 619.362 388.028C621.478 393.149 624.428 397.602 628.213 401.387C631.998 405.061 636.507 407.956 641.739 410.071C647.083 412.075 652.928 413.077 659.273 413.077H663.114C669.571 413.077 675.416 412.019 680.648 409.904C685.992 407.789 690.557 404.894 694.342 401.22C698.127 397.435 701.022 392.982 703.025 387.861C705.141 382.74 706.198 377.173 706.198 371.162C706.198 364.927 705.141 359.194 703.025 353.961C700.91 348.729 697.904 344.22 694.008 340.435C690.223 336.539 685.658 333.533 680.314 331.417C675.082 329.302 669.349 328.245 663.114 328.245H659.273Z" fill="#1198DC"/>
<path fill-rule="evenodd" clip-rule="evenodd" d="M487.172 53.0395C493.726 65.9326 498.323 80.0641 500.717 94.7266C503.362 110.916 503.266 127.413 500.437 143.204C497.608 158.995 492.105 173.749 484.265 186.561C476.859 198.662 467.517 208.791 456.754 216.399C484.186 193.805 498.815 152.542 491.291 109.328C488.017 90.5282 480.947 73.6308 471.263 59.6371L471.284 59.6212C470.295 58.2497 469.716 56.5843 469.716 54.7887C469.716 50.1007 473.665 46.3003 478.537 46.3003C481.115 46.3003 483.435 47.3641 485.048 49.0604L485.059 49.0512C485.069 49.0687 485.079 49.0861 485.088 49.1036C486.113 50.1958 486.846 51.5455 487.172 53.0395Z" fill="#A9CF44"/>
<path fill-rule="evenodd" clip-rule="evenodd" d="M326.833 20.293L318.823 25.2884L329.249 43.7072C306.769 60.3264 292.082 87.7816 292.082 118.838C292.082 169.553 331.249 210.667 379.564 210.667C393.502 210.667 406.678 207.245 418.373 201.159L428.776 219.539L436.786 214.543L426.489 196.352C450.872 180.054 467.046 151.429 467.046 118.838C467.046 68.1217 427.879 27.0084 379.564 27.0084C364.172 27.0084 349.708 31.1812 337.143 38.5078L326.833 20.293ZM410.903 187.962L398.438 165.942C394.655 167.64 390.661 168.791 386.565 169.358C380.679 170.171 374.698 169.759 368.963 168.147C363.229 166.534 357.853 163.751 353.143 159.957C348.433 156.163 344.481 151.433 341.513 146.036C338.544 140.639 336.618 134.681 335.843 128.503C335.068 122.324 335.46 116.046 336.996 110.026C338.533 104.007 341.184 98.3641 344.798 93.42C347.082 90.2951 349.723 87.488 352.655 85.0586L340.191 63.0388C334.651 67.2078 329.714 72.218 325.549 77.9158C319.995 85.5133 315.921 94.1846 313.56 103.435C311.199 112.685 310.597 122.333 311.787 131.827C312.978 141.322 315.939 150.477 320.5 158.77C325.062 167.064 331.135 174.333 338.373 180.163C345.611 185.992 353.872 190.269 362.684 192.747C371.496 195.226 380.687 195.858 389.732 194.608C397.092 193.591 404.239 191.344 410.903 187.962ZM419.278 182.929C425.577 178.508 431.153 173.029 435.779 166.702C441.332 159.104 445.406 150.433 447.767 141.183C450.129 131.933 450.731 122.285 449.54 112.79C448.693 106.037 446.951 99.4547 444.373 93.2325L423.151 106.094L423.156 106.109L412.407 112.623L420.235 126.855L425.859 123.447C425.773 127.204 425.262 130.945 424.331 134.591C423.239 138.869 421.584 142.957 419.421 146.739L378.755 74.8962C383.333 74.6931 387.923 75.2217 392.364 76.4709C398.099 78.0838 403.475 80.8666 408.185 84.6603C410.946 86.8846 413.447 89.4309 415.642 92.2448L436.836 79.4007C432.923 73.7565 428.251 68.7204 422.955 64.4549C415.717 58.6251 407.456 54.3489 398.644 51.8703C389.832 49.3918 380.641 48.7594 371.596 50.0094C363.487 51.13 355.637 53.7438 348.407 57.723L351.936 63.9585L351.909 63.9755L414.593 174.716L414.62 174.699L419.278 182.929Z" fill="#1198DC"/>
<path fill-rule="evenodd" clip-rule="evenodd" d="M412.529 240.815C429.622 235.87 445.474 227.052 458.97 214.981L449.402 196.777C438.068 206.915 421.723 217.005 407.368 221.158C393.013 225.311 377.964 226.111 363.283 223.5C348.601 220.889 334.643 214.932 322.392 206.047C310.141 197.162 299.894 185.566 292.373 172.076C284.852 158.585 280.241 143.528 278.862 127.964C277.484 112.401 279.373 96.709 284.396 81.9944C289.419 67.2799 298.509 53.545 308.99 42.4421C319.471 31.3391 333.246 23.1553 347.217 17.7485L338.396 0C321.76 6.4377 306.616 15.2251 294.137 28.4451C281.657 41.6651 272.09 57.5961 266.109 75.1164C260.129 92.6367 257.88 111.32 259.521 129.851C261.162 148.383 266.653 166.311 275.608 182.374C284.563 198.437 296.763 212.244 311.351 222.823C325.938 233.401 342.557 240.495 360.038 243.604C361.399 243.846 362.762 244.063 364.127 244.256V252.502C341.907 255.121 323.491 263.02 313.913 273.557C329.805 265.748 353 260.826 378.832 260.826C407.687 260.826 433.252 266.967 449.022 276.414C440.167 264.217 419.863 254.985 395.003 252.337V244.453C400.907 243.697 406.765 242.483 412.529 240.815Z" fill="#1198DC"/>
<path fill-rule="evenodd" clip-rule="evenodd" d="M456.707 24.7765L460.642 24.3086L461.473 32.0073L457.335 30.5892L456.707 24.7765ZM457.427 31.4412L457.433 31.5029L454.696 30.5651C452.342 31.6391 450.87 34.7262 452.345 38.1271L458.371 40.1921L459.389 49.6285L463.324 49.1606L462.509 41.6102L464.099 42.1548C467.048 40.8996 467.783 37.0412 466.45 34.5927L461.572 32.921L461.565 32.8593L457.427 31.4412Z" fill="#1198DC"/>
<path d="M48.6782 465.625H49.6319L51.3142 471.784L50.0823 472.129C49.42 470.707 48.9166 469.753 48.5722 469.268C48.007 468.482 47.3006 467.859 46.4528 467.4C45.6139 466.941 44.6866 466.711 43.6711 466.711C42.4789 466.711 41.3795 467.033 40.3727 467.678C39.3749 468.314 38.5624 469.25 37.9354 470.486C37.3173 471.723 37.0082 473.113 37.0082 474.659C37.0082 476.248 37.3217 477.666 37.9487 478.911C38.5845 480.156 39.4411 481.114 40.5185 481.785C41.5958 482.457 42.7571 482.792 44.0022 482.792C45.1767 482.792 46.3777 482.457 47.6052 481.785C48.8327 481.114 49.8968 480.174 50.7976 478.964L51.8573 479.692C51.3098 480.505 50.7181 481.194 50.0823 481.759C49.0756 482.668 48.0291 483.34 46.9429 483.772C45.8567 484.205 44.6645 484.421 43.3664 484.421C40.4964 484.421 38.165 483.357 36.3724 481.229C34.8888 479.463 34.147 477.361 34.147 474.924C34.147 473.131 34.5576 471.511 35.3789 470.062C36.2002 468.605 37.3305 467.448 38.7699 466.592C40.2182 465.735 41.7769 465.307 43.4459 465.307C44.3378 465.307 45.1635 465.431 45.9229 465.678C46.6912 465.916 47.4683 466.305 48.2543 466.844L48.6782 465.625ZM52.4348 465.625H59.5746V466.751H59.0977C58.5149 466.751 58.0998 466.808 57.8526 466.923C57.6583 467.011 57.5126 467.161 57.4154 467.373C57.3183 467.585 57.2697 468.009 57.2697 468.645V476.964C57.2697 478.447 57.4464 479.547 57.7996 480.262C58.1617 480.977 58.7577 481.578 59.5878 482.064C60.4268 482.549 61.3452 482.792 62.3431 482.792C63.3498 482.792 64.3035 482.532 65.2043 482.011C66.105 481.49 66.7364 480.871 67.0985 480.156C67.4606 479.441 67.6416 478.31 67.6416 476.765V468.764C67.6416 468.181 67.5842 467.762 67.4694 467.506C67.3546 467.25 67.178 467.06 66.9395 466.936C66.7099 466.813 66.3479 466.751 65.8533 466.751H65.3367V465.625H71.5228V466.751H71.0989C70.4012 466.751 69.92 466.883 69.655 467.148C69.3989 467.413 69.2709 467.912 69.2709 468.645V477.162C69.2709 478.717 68.9795 480.015 68.3966 481.057C67.8138 482.09 66.966 482.911 65.8533 483.521C64.7407 484.121 63.4469 484.421 61.9722 484.421C60.5769 484.421 59.3008 484.112 58.144 483.494C56.9871 482.876 56.135 482.108 55.5875 481.189C55.0488 480.262 54.7794 479.101 54.7794 477.706V468.645C54.7794 468.062 54.7264 467.656 54.6205 467.426C54.5145 467.188 54.36 467.016 54.1569 466.91C53.9537 466.804 53.6005 466.751 53.0971 466.751H52.4348V465.625ZM72.5242 465.625H82.0615C83.8719 465.625 85.2406 465.815 86.1679 466.195C87.0951 466.565 87.806 467.108 88.3005 467.824C88.8039 468.53 89.0556 469.352 89.0556 470.288C89.0556 471.25 88.8127 472.107 88.327 472.857C87.8413 473.599 87.1393 474.186 86.2209 474.619C85.3113 475.043 84.1015 475.264 82.5914 475.281L87.466 481.242C87.8634 481.737 88.1239 482.042 88.2476 482.156C88.5566 482.43 88.879 482.638 89.2145 482.779C89.5589 482.92 89.9431 482.991 90.367 482.991H90.6981V484.104H86.4858L79.7037 475.281H77.3326V480.977C77.3326 481.613 77.3547 482.011 77.3988 482.17C77.496 482.47 77.6505 482.682 77.8625 482.805C78.0832 482.929 78.5071 482.991 79.1341 482.991H79.611V484.104H72.5242V482.991H73.16C73.6369 482.991 73.9548 482.96 74.1137 482.898C74.2815 482.836 74.4272 482.73 74.5509 482.58C74.6833 482.421 74.7761 482.223 74.829 481.984C74.8467 481.887 74.86 481.441 74.8688 480.646V468.539C74.8688 468.009 74.8158 467.63 74.7098 467.4C74.6039 467.17 74.4537 467.007 74.2595 466.91C74.074 466.804 73.7473 466.751 73.2792 466.751H72.5242V465.625ZM77.3326 467.069V474.023H81.1343C82.4236 474.023 83.3288 473.944 83.8498 473.785C84.5916 473.573 85.1744 473.184 85.5983 472.619C86.031 472.054 86.2474 471.334 86.2474 470.46C86.2474 469.718 86.0928 469.095 85.7837 468.592C85.4747 468.08 85.0508 467.7 84.5121 467.453C83.9822 467.197 83.1875 467.069 82.1278 467.069H77.3326ZM103.131 465.625H104.085L105.502 471.321L104.284 471.692C103.506 470.093 102.473 468.835 101.184 467.917C100.124 467.148 98.9497 466.764 97.6604 466.764C96.8833 466.764 96.1856 466.905 95.5675 467.188C94.9493 467.462 94.4857 467.819 94.1766 468.261C93.8675 468.702 93.713 469.153 93.713 469.612C93.713 470.027 93.8322 470.429 94.0706 470.817C94.3091 471.206 94.6711 471.55 95.1568 471.851C95.6425 472.142 96.4373 472.451 97.5412 472.778L100.998 473.798C101.422 473.922 102.036 474.16 102.84 474.513C103.652 474.866 104.284 475.242 104.734 475.639C105.184 476.028 105.538 476.509 105.794 477.083C106.05 477.648 106.178 478.262 106.178 478.924C106.178 480.39 105.533 481.675 104.244 482.779C102.963 483.874 101.303 484.421 99.2632 484.421C98.2123 484.421 97.2718 484.271 96.4417 483.971C95.6116 483.662 94.7153 483.119 93.7527 482.342L93.1434 484.104H92.2162L90.9842 477.467L92.2162 477.215C92.6665 478.443 93.2626 479.485 94.0044 480.342C94.755 481.198 95.5807 481.847 96.4815 482.289C97.391 482.721 98.3139 482.938 99.2499 482.938C100.522 482.938 101.634 482.554 102.588 481.785C103.383 481.141 103.78 480.381 103.78 479.507C103.78 478.703 103.493 478.046 102.919 477.533C102.336 477.021 101.294 476.544 99.793 476.103L96.4815 475.149C94.627 474.61 93.32 473.922 92.5606 473.083C91.8011 472.244 91.4214 471.281 91.4214 470.195C91.4214 469.347 91.6686 468.566 92.1632 467.85C92.6577 467.126 93.4172 466.521 94.4415 466.036C95.4659 465.55 96.5874 465.307 97.8061 465.307C98.8305 465.307 99.8107 465.484 100.747 465.837C101.409 466.084 102.018 466.437 102.575 466.897L103.131 465.625ZM117.074 465.307C118.761 465.307 120.284 465.713 121.644 466.526C123.119 467.4 124.249 468.535 125.035 469.93C125.83 471.325 126.227 472.941 126.227 474.778C126.227 477.622 125.344 479.94 123.578 481.732C121.812 483.525 119.56 484.421 116.823 484.421C113.767 484.421 111.347 483.344 109.564 481.189C108.106 479.432 107.378 477.33 107.378 474.884C107.378 473.065 107.789 471.436 108.61 469.996C109.431 468.548 110.597 467.404 112.107 466.565C113.617 465.726 115.273 465.307 117.074 465.307ZM117.074 466.738C115.697 466.738 114.513 467.056 113.524 467.691C112.535 468.318 111.74 469.246 111.14 470.473C110.548 471.701 110.252 473.215 110.252 475.017C110.252 476.739 110.544 478.2 111.127 479.401C111.718 480.593 112.509 481.507 113.498 482.143C114.487 482.779 115.599 483.097 116.836 483.097C118.063 483.097 119.149 482.788 120.094 482.17C121.039 481.543 121.821 480.562 122.439 479.229C123.057 477.887 123.366 476.399 123.366 474.765C123.366 473.105 123.057 471.586 122.439 470.208C121.909 469.025 121.207 468.151 120.333 467.585C119.459 467.02 118.372 466.738 117.074 466.738ZM140.025 465.625H140.978L142.396 471.321L141.177 471.692C140.4 470.093 139.367 468.835 138.078 467.917C137.018 467.148 135.843 466.764 134.554 466.764C133.777 466.764 133.079 466.905 132.461 467.188C131.843 467.462 131.379 467.819 131.07 468.261C130.761 468.702 130.607 469.153 130.607 469.612C130.607 470.027 130.726 470.429 130.964 470.817C131.203 471.206 131.565 471.55 132.05 471.851C132.536 472.142 133.331 472.451 134.435 472.778L137.892 473.798C138.316 473.922 138.93 474.16 139.733 474.513C140.546 474.866 141.177 475.242 141.628 475.639C142.078 476.028 142.431 476.509 142.687 477.083C142.943 477.648 143.071 478.262 143.071 478.924C143.071 480.39 142.427 481.675 141.137 482.779C139.857 483.874 138.197 484.421 136.157 484.421C135.106 484.421 134.165 484.271 133.335 483.971C132.505 483.662 131.609 483.119 130.646 482.342L130.037 484.104H129.11L127.878 477.467L129.11 477.215C129.56 478.443 130.156 479.485 130.898 480.342C131.649 481.198 132.474 481.847 133.375 482.289C134.285 482.721 135.207 482.938 136.144 482.938C137.415 482.938 138.528 482.554 139.482 481.785C140.276 481.141 140.674 480.381 140.674 479.507C140.674 478.703 140.387 478.046 139.813 477.533C139.23 477.021 138.188 476.544 136.687 476.103L133.375 475.149C131.521 474.61 130.214 473.922 129.454 473.083C128.695 472.244 128.315 471.281 128.315 470.195C128.315 469.347 128.562 468.566 129.057 467.85C129.551 467.126 130.311 466.521 131.335 466.036C132.36 465.55 133.481 465.307 134.7 465.307C135.724 465.307 136.704 465.484 137.64 465.837C138.303 466.084 138.912 466.437 139.468 466.897L140.025 465.625ZM151.485 465.625H166.507L168.242 470.486L167.076 470.923C166.785 470.129 166.467 469.506 166.123 469.056C165.778 468.597 165.363 468.208 164.877 467.89C164.401 467.572 163.915 467.36 163.42 467.254C162.935 467.148 162.052 467.095 160.771 467.095H156.294V473.864H158.519C159.341 473.864 159.959 473.727 160.374 473.453C160.798 473.171 161.089 472.822 161.248 472.407C161.372 472.098 161.433 471.559 161.433 470.791V470.486H162.732V478.593H161.433V477.891C161.433 477.273 161.385 476.827 161.288 476.553C161.199 476.279 161.032 476.023 160.784 475.785C160.537 475.538 160.268 475.37 159.976 475.281C159.694 475.193 159.208 475.149 158.519 475.149H156.294V481.163C156.294 481.79 156.32 482.174 156.373 482.315C156.435 482.448 156.532 482.545 156.665 482.607C156.797 482.668 157.159 482.699 157.751 482.699H160.519C162.065 482.699 163.27 482.514 164.136 482.143C165.01 481.772 165.778 481.203 166.441 480.434C166.962 479.834 167.46 478.986 167.937 477.891L169.143 478.315L167.076 484.104H151.485V482.991H152.015C152.633 482.991 153.018 482.951 153.168 482.872C153.397 482.757 153.574 482.571 153.698 482.315C153.786 482.139 153.83 481.755 153.83 481.163V468.446C153.83 467.872 153.773 467.488 153.658 467.294C153.543 467.1 153.344 466.95 153.062 466.844C152.912 466.782 152.386 466.751 151.485 466.751V465.625ZM176.934 465.625H184.233C186.45 465.625 187.977 465.766 188.816 466.049C189.867 466.384 190.733 466.958 191.412 467.771C192.101 468.583 192.446 469.616 192.446 470.87C192.446 471.939 192.185 472.862 191.664 473.639C191.037 474.575 190.273 475.242 189.373 475.639C188.481 476.028 187.072 476.222 185.147 476.222H181.769V480.964C181.769 481.671 181.809 482.117 181.888 482.302C181.994 482.558 182.14 482.739 182.326 482.845C182.511 482.942 182.886 482.991 183.451 482.991H184.087V484.104H176.934V482.991H177.371C177.981 482.991 178.396 482.942 178.617 482.845C178.837 482.739 178.996 482.58 179.093 482.368C179.199 482.147 179.252 481.737 179.252 481.136V468.499C179.252 467.917 179.204 467.528 179.107 467.334C179.018 467.131 178.864 466.985 178.643 466.897C178.431 466.799 178.007 466.751 177.371 466.751H176.934V465.625ZM181.769 467.069V474.818H184.617C186.057 474.818 187.063 474.69 187.637 474.434C188.22 474.178 188.701 473.736 189.081 473.109C189.461 472.473 189.651 471.731 189.651 470.884C189.651 469.956 189.43 469.184 188.988 468.566C188.547 467.939 187.946 467.515 187.187 467.294C186.657 467.144 185.624 467.069 184.087 467.069H181.769ZM202.296 465.307C203.982 465.307 205.506 465.713 206.866 466.526C208.34 467.4 209.471 468.535 210.257 469.93C211.051 471.325 211.449 472.941 211.449 474.778C211.449 477.622 210.566 479.94 208.8 481.732C207.033 483.525 204.782 484.421 202.044 484.421C198.988 484.421 196.569 483.344 194.785 481.189C193.328 479.432 192.599 477.33 192.599 474.884C192.599 473.065 193.01 471.436 193.831 469.996C194.653 468.548 195.818 467.404 197.328 466.565C198.838 465.726 200.494 465.307 202.296 465.307ZM202.296 466.738C200.918 466.738 199.735 467.056 198.746 467.691C197.757 468.318 196.962 469.246 196.361 470.473C195.77 471.701 195.474 473.215 195.474 475.017C195.474 476.739 195.765 478.2 196.348 479.401C196.94 480.593 197.73 481.507 198.719 482.143C199.708 482.779 200.821 483.097 202.057 483.097C203.285 483.097 204.371 482.788 205.316 482.17C206.261 481.543 207.042 480.562 207.66 479.229C208.279 477.887 208.588 476.399 208.588 474.765C208.588 473.105 208.279 471.586 207.66 470.208C207.131 469.025 206.428 468.151 205.554 467.585C204.68 467.02 203.594 466.738 202.296 466.738ZM200.07 464.221V463.757L202.521 461.956C203.36 461.338 204.062 461.028 204.627 461.028C204.892 461.028 205.113 461.126 205.289 461.32C205.475 461.505 205.567 461.739 205.567 462.022C205.567 462.366 205.444 462.653 205.197 462.883C204.949 463.104 204.503 463.285 203.859 463.426L200.07 464.221ZM225.246 465.625H226.2L227.617 471.321L226.399 471.692C225.622 470.093 224.588 468.835 223.299 467.917C222.239 467.148 221.065 466.764 219.775 466.764C218.998 466.764 218.301 466.905 217.683 467.188C217.064 467.462 216.601 467.819 216.292 468.261C215.983 468.702 215.828 469.153 215.828 469.612C215.828 470.027 215.947 470.429 216.186 470.817C216.424 471.206 216.786 471.55 217.272 471.851C217.758 472.142 218.552 472.451 219.656 472.778L223.114 473.798C223.537 473.922 224.151 474.16 224.955 474.513C225.767 474.866 226.399 475.242 226.849 475.639C227.299 476.028 227.653 476.509 227.909 477.083C228.165 477.648 228.293 478.262 228.293 478.924C228.293 480.39 227.648 481.675 226.359 482.779C225.078 483.874 223.418 484.421 221.378 484.421C220.327 484.421 219.387 484.271 218.557 483.971C217.727 483.662 216.83 483.119 215.868 482.342L215.258 484.104H214.331L213.099 477.467L214.331 477.215C214.782 478.443 215.378 479.485 216.119 480.342C216.87 481.198 217.696 481.847 218.597 482.289C219.506 482.721 220.429 482.938 221.365 482.938C222.637 482.938 223.749 482.554 224.703 481.785C225.498 481.141 225.895 480.381 225.895 479.507C225.895 478.703 225.608 478.046 225.034 477.533C224.451 477.021 223.409 476.544 221.908 476.103L218.597 475.149C216.742 474.61 215.435 473.922 214.676 473.083C213.916 472.244 213.536 471.281 213.536 470.195C213.536 469.347 213.784 468.566 214.278 467.85C214.773 467.126 215.532 466.521 216.557 466.036C217.581 465.55 218.703 465.307 219.921 465.307C220.946 465.307 221.926 465.484 222.862 465.837C223.524 466.084 224.134 466.437 224.69 466.897L225.246 465.625ZM229.559 476.54H237.428V478.182H229.559V476.54ZM253.437 465.625H254.404L255.914 471.321L254.722 471.731C253.927 469.93 253.013 468.645 251.98 467.877C250.947 467.108 249.777 466.724 248.47 466.724C246.589 466.724 245.012 467.506 243.741 469.069C242.469 470.632 241.833 472.495 241.833 474.659C241.833 476.213 242.156 477.639 242.8 478.937C243.454 480.236 244.324 481.225 245.41 481.905C246.496 482.585 247.648 482.925 248.867 482.925C249.653 482.925 250.399 482.783 251.106 482.501C251.821 482.209 252.399 481.865 252.841 481.467C253.168 481.167 253.388 480.836 253.503 480.474C253.618 480.112 253.671 479.609 253.662 478.964V478.09C253.662 477.392 253.578 476.898 253.411 476.606C253.252 476.315 253.022 476.107 252.722 475.984C252.492 475.886 251.874 475.838 250.867 475.838V474.725H258.365V475.838H257.755C257.234 475.838 256.877 475.891 256.682 475.997C256.497 476.094 256.36 476.248 256.272 476.46C256.183 476.672 256.139 477.087 256.139 477.706V484.104H254.828L254.126 482.487C253.384 483.026 252.594 483.446 251.755 483.746C250.501 484.196 249.26 484.421 248.033 484.421C245.551 484.421 243.423 483.512 241.648 481.693C239.882 479.865 238.999 477.591 238.999 474.871C238.999 472.169 239.895 469.899 241.688 468.062C243.48 466.225 245.626 465.307 248.125 465.307C248.752 465.307 249.37 465.369 249.98 465.492C250.589 465.616 251.145 465.793 251.649 466.022C252.028 466.19 252.47 466.464 252.973 466.844L253.437 465.625ZM259.234 465.625H268.771C270.581 465.625 271.95 465.815 272.877 466.195C273.805 466.565 274.515 467.108 275.01 467.824C275.513 468.53 275.765 469.352 275.765 470.288C275.765 471.25 275.522 472.107 275.036 472.857C274.551 473.599 273.849 474.186 272.93 474.619C272.021 475.043 270.811 475.264 269.301 475.281L274.175 481.242C274.573 481.737 274.833 482.042 274.957 482.156C275.266 482.43 275.588 482.638 275.924 482.779C276.268 482.92 276.652 482.991 277.076 482.991H277.408V484.104H273.195L266.413 475.281H264.042V480.977C264.042 481.613 264.064 482.011 264.108 482.17C264.205 482.47 264.36 482.682 264.572 482.805C264.793 482.929 265.216 482.991 265.843 482.991H266.32V484.104H259.234V482.991H259.869C260.346 482.991 260.664 482.96 260.823 482.898C260.991 482.836 261.137 482.73 261.26 482.58C261.393 482.421 261.485 482.223 261.538 481.984C261.556 481.887 261.569 481.441 261.578 480.646V468.539C261.578 468.009 261.525 467.63 261.419 467.4C261.313 467.17 261.163 467.007 260.969 466.91C260.783 466.804 260.457 466.751 259.989 466.751H259.234V465.625ZM264.042 467.069V474.023H267.844C269.133 474.023 270.038 473.944 270.559 473.785C271.301 473.573 271.884 473.184 272.308 472.619C272.74 472.054 272.957 471.334 272.957 470.46C272.957 469.718 272.802 469.095 272.493 468.592C272.184 468.08 271.76 467.7 271.221 467.453C270.692 467.197 269.897 467.069 268.837 467.069H264.042ZM284.277 465.625H286.463L292.198 481.07C292.481 481.847 292.764 482.364 293.046 482.62C293.338 482.867 293.726 482.991 294.212 482.991H294.503V484.104H287.92V482.991C288.132 482.973 288.339 482.964 288.542 482.964C288.966 482.964 289.244 482.92 289.377 482.832C289.633 482.664 289.761 482.452 289.761 482.196C289.761 482.011 289.637 481.556 289.39 480.832L288.171 477.255H281.469L280.038 481.256C279.888 481.671 279.813 481.958 279.813 482.117C279.813 482.293 279.857 482.448 279.946 482.58C280.043 482.713 280.171 482.814 280.33 482.885C280.489 482.947 280.745 482.978 281.098 482.978C281.336 482.978 281.531 482.982 281.681 482.991V484.104H276.157V482.991C276.669 482.991 277.036 482.942 277.257 482.845C277.486 482.739 277.685 482.576 277.853 482.355C278.02 482.125 278.241 481.649 278.515 480.924L284.277 465.625ZM281.959 475.957H287.668L284.807 468.009L281.959 475.957ZM294.511 466.751V465.625H301.108C304.128 465.625 306.234 465.815 307.426 466.195C309.184 466.751 310.61 467.788 311.705 469.307C312.915 470.985 313.52 472.915 313.52 475.096C313.52 476.58 313.219 477.962 312.619 479.242C312.027 480.514 311.246 481.538 310.274 482.315C309.471 482.969 308.504 483.432 307.373 483.706C306.243 483.971 305.104 484.104 303.956 484.104H294.511V482.991H295.279L295.531 483.004C295.858 483.004 296.123 482.938 296.326 482.805C296.538 482.673 296.688 482.496 296.776 482.276C296.838 482.108 296.869 481.719 296.869 481.11V468.751C296.869 468.053 296.825 467.603 296.737 467.4C296.613 467.126 296.414 466.936 296.14 466.83C295.981 466.777 295.438 466.751 294.511 466.751ZM299.333 482.673H303.333C303.731 482.673 304.388 482.602 305.307 482.461C306.234 482.32 306.896 482.147 307.294 481.944C307.877 481.644 308.442 481.163 308.989 480.501C309.537 479.829 309.956 479.03 310.248 478.103C310.548 477.167 310.698 476.098 310.698 474.897C310.698 473.705 310.548 472.672 310.248 471.798C309.956 470.923 309.51 470.137 308.91 469.44C308.318 468.742 307.656 468.212 306.923 467.85C306.199 467.479 305.386 467.245 304.486 467.148C304 467.104 303.187 467.082 302.048 467.082H299.333V482.673ZM314.601 465.625H321.74V466.751H321.263C320.681 466.751 320.266 466.808 320.018 466.923C319.824 467.011 319.678 467.161 319.581 467.373C319.484 467.585 319.435 468.009 319.435 468.645V476.964C319.435 478.447 319.612 479.547 319.965 480.262C320.327 480.977 320.923 481.578 321.754 482.064C322.592 482.549 323.511 482.792 324.509 482.792C325.515 482.792 326.469 482.532 327.37 482.011C328.271 481.49 328.902 480.871 329.264 480.156C329.626 479.441 329.807 478.31 329.807 476.765V468.764C329.807 468.181 329.75 467.762 329.635 467.506C329.52 467.25 329.344 467.06 329.105 466.936C328.876 466.813 328.514 466.751 328.019 466.751H327.502V465.625H333.688V466.751H333.265C332.567 466.751 332.086 466.883 331.821 467.148C331.565 467.413 331.437 467.912 331.437 468.645V477.162C331.437 478.717 331.145 480.015 330.562 481.057C329.979 482.09 329.132 482.911 328.019 483.521C326.906 484.121 325.613 484.421 324.138 484.421C322.743 484.421 321.467 484.112 320.31 483.494C319.153 482.876 318.301 482.108 317.753 481.189C317.214 480.262 316.945 479.101 316.945 477.706V468.645C316.945 468.062 316.892 467.656 316.786 467.426C316.68 467.188 316.526 467.016 316.323 466.91C316.119 466.804 315.766 466.751 315.263 466.751H314.601V465.625ZM341.538 465.625H343.724L349.46 481.07C349.742 481.847 350.025 482.364 350.307 482.62C350.599 482.867 350.987 482.991 351.473 482.991H351.764V484.104H345.181V482.991C345.393 482.973 345.6 482.964 345.804 482.964C346.227 482.964 346.506 482.92 346.638 482.832C346.894 482.664 347.022 482.452 347.022 482.196C347.022 482.011 346.899 481.556 346.651 480.832L345.433 477.255H338.73L337.299 481.256C337.149 481.671 337.074 481.958 337.074 482.117C337.074 482.293 337.118 482.448 337.207 482.58C337.304 482.713 337.432 482.814 337.591 482.885C337.75 482.947 338.006 482.978 338.359 482.978C338.598 482.978 338.792 482.982 338.942 482.991V484.104H333.418V482.991C333.93 482.991 334.297 482.942 334.518 482.845C334.747 482.739 334.946 482.576 335.114 482.355C335.282 482.125 335.502 481.649 335.776 480.924L341.538 465.625ZM339.22 475.957H344.929L342.068 468.009L339.22 475.957ZM366.489 465.625H367.443L369.125 471.784L367.893 472.129C367.231 470.707 366.727 469.753 366.383 469.268C365.818 468.482 365.111 467.859 364.264 467.4C363.425 466.941 362.497 466.711 361.482 466.711C360.29 466.711 359.19 467.033 358.184 467.678C357.186 468.314 356.373 469.25 355.746 470.486C355.128 471.723 354.819 473.113 354.819 474.659C354.819 476.248 355.132 477.666 355.759 478.911C356.395 480.156 357.252 481.114 358.329 481.785C359.407 482.457 360.568 482.792 361.813 482.792C362.988 482.792 364.189 482.457 365.416 481.785C366.644 481.114 367.708 480.174 368.608 478.964L369.668 479.692C369.121 480.505 368.529 481.194 367.893 481.759C366.886 482.668 365.84 483.34 364.754 483.772C363.668 484.205 362.475 484.421 361.177 484.421C358.307 484.421 355.976 483.357 354.183 481.229C352.7 479.463 351.958 477.361 351.958 474.924C351.958 473.131 352.368 471.511 353.19 470.062C354.011 468.605 355.141 467.448 356.581 466.592C358.029 465.735 359.588 465.307 361.257 465.307C362.149 465.307 362.974 465.431 363.734 465.678C364.502 465.916 365.279 466.305 366.065 466.844L366.489 465.625ZM360.396 484.104L360.051 485.256C360.413 485.229 360.63 485.216 360.7 485.216C361.195 485.216 361.654 485.313 362.078 485.508C362.396 485.649 362.643 485.865 362.82 486.157C363.005 486.457 363.098 486.81 363.098 487.216C363.098 487.905 362.868 488.462 362.409 488.885C361.959 489.318 361.349 489.535 360.581 489.535C359.813 489.535 359.151 489.345 358.594 488.965C358.179 488.691 357.972 488.373 357.972 488.011C357.972 487.817 358.033 487.654 358.157 487.521C358.29 487.389 358.457 487.322 358.66 487.322C358.864 487.322 359.031 487.367 359.164 487.455C359.296 487.552 359.411 487.729 359.508 487.985C359.641 488.285 359.751 488.475 359.839 488.554C360.042 488.713 360.281 488.793 360.555 488.793C360.908 488.793 361.208 488.656 361.455 488.382C361.703 488.117 361.826 487.768 361.826 487.336C361.826 486.885 361.694 486.541 361.429 486.302C361.164 486.064 360.753 485.945 360.197 485.945C359.835 485.945 359.402 486.033 358.899 486.21L359.574 484.104H360.396ZM380.326 465.307C382.013 465.307 383.536 465.713 384.896 466.526C386.371 467.4 387.501 468.535 388.287 469.93C389.082 471.325 389.479 472.941 389.479 474.778C389.479 477.622 388.596 479.94 386.83 481.732C385.064 483.525 382.812 484.421 380.074 484.421C377.019 484.421 374.599 483.344 372.815 481.189C371.358 479.432 370.63 477.33 370.63 474.884C370.63 473.065 371.04 471.436 371.862 469.996C372.683 468.548 373.849 467.404 375.359 466.565C376.869 465.726 378.525 465.307 380.326 465.307ZM380.326 466.738C378.948 466.738 377.765 467.056 376.776 467.691C375.787 468.318 374.992 469.246 374.392 470.473C373.8 471.701 373.504 473.215 373.504 475.017C373.504 476.739 373.796 478.2 374.378 479.401C374.97 480.593 375.76 481.507 376.75 482.143C377.739 482.779 378.851 483.097 380.088 483.097C381.315 483.097 382.401 482.788 383.346 482.17C384.291 481.543 385.073 480.562 385.691 479.229C386.309 477.887 386.618 476.399 386.618 474.765C386.618 473.105 386.309 471.586 385.691 470.208C385.161 469.025 384.459 468.151 383.585 467.585C382.71 467.02 381.624 466.738 380.326 466.738ZM384.234 462.154C384.084 462.737 383.752 463.223 383.24 463.611C382.737 464 382.172 464.194 381.545 464.194C381.342 464.194 381.156 464.177 380.988 464.141C380.821 464.106 380.423 463.991 379.796 463.797C378.834 463.497 378.149 463.347 377.743 463.347C377.354 463.347 376.997 463.528 376.67 463.89L375.889 463.625C376.056 463.068 376.357 462.622 376.789 462.287C377.231 461.942 377.712 461.77 378.233 461.77C378.763 461.77 379.62 461.938 380.803 462.274C381.386 462.433 381.832 462.512 382.141 462.512C382.706 462.512 383.139 462.313 383.439 461.916L384.234 462.154ZM390.852 465.625H405.873L407.608 470.486L406.442 470.923C406.151 470.129 405.833 469.506 405.489 469.056C405.144 468.597 404.729 468.208 404.244 467.89C403.767 467.572 403.281 467.36 402.787 467.254C402.301 467.148 401.418 467.095 400.137 467.095H395.66V473.864H397.885C398.707 473.864 399.325 473.727 399.74 473.453C400.164 473.171 400.455 472.822 400.614 472.407C400.738 472.098 400.8 471.559 400.8 470.791V470.486H402.098V478.593H400.8V477.891C400.8 477.273 400.751 476.827 400.654 476.553C400.566 476.279 400.398 476.023 400.15 475.785C399.903 475.538 399.634 475.37 399.342 475.281C399.06 475.193 398.574 475.149 397.885 475.149H395.66V481.163C395.66 481.79 395.686 482.174 395.739 482.315C395.801 482.448 395.898 482.545 396.031 482.607C396.163 482.668 396.525 482.699 397.117 482.699H399.886C401.431 482.699 402.636 482.514 403.502 482.143C404.376 481.772 405.144 481.203 405.807 480.434C406.328 479.834 406.827 478.986 407.303 477.891L408.509 478.315L406.442 484.104H390.852V482.991H391.381C392 482.991 392.384 482.951 392.534 482.872C392.763 482.757 392.94 482.571 393.064 482.315C393.152 482.139 393.196 481.755 393.196 481.163V468.446C393.196 467.872 393.139 467.488 393.024 467.294C392.909 467.1 392.71 466.95 392.428 466.844C392.278 466.782 391.752 466.751 390.852 466.751V465.625ZM421.472 465.625H422.425L423.843 471.321L422.624 471.692C421.847 470.093 420.814 468.835 419.525 467.917C418.465 467.148 417.29 466.764 416.001 466.764C415.224 466.764 414.526 466.905 413.908 467.188C413.29 467.462 412.826 467.819 412.517 468.261C412.208 468.702 412.054 469.153 412.054 469.612C412.054 470.027 412.173 470.429 412.411 470.817C412.65 471.206 413.012 471.55 413.497 471.851C413.983 472.142 414.778 472.451 415.882 472.778L419.339 473.798C419.763 473.922 420.377 474.16 421.18 474.513C421.993 474.866 422.624 475.242 423.075 475.639C423.525 476.028 423.878 476.509 424.134 477.083C424.39 477.648 424.518 478.262 424.518 478.924C424.518 480.39 423.874 481.675 422.584 482.779C421.304 483.874 419.644 484.421 417.604 484.421C416.553 484.421 415.612 484.271 414.782 483.971C413.952 483.662 413.056 483.119 412.093 482.342L411.484 484.104H410.557L409.325 477.467L410.557 477.215C411.007 478.443 411.603 479.485 412.345 480.342C413.096 481.198 413.921 481.847 414.822 482.289C415.732 482.721 416.655 482.938 417.591 482.938C418.862 482.938 419.975 482.554 420.929 481.785C421.723 481.141 422.121 480.381 422.121 479.507C422.121 478.703 421.834 478.046 421.26 477.533C420.677 477.021 419.635 476.544 418.134 476.103L414.822 475.149C412.968 474.61 411.661 473.922 410.901 473.083C410.142 472.244 409.762 471.281 409.762 470.195C409.762 469.347 410.009 468.566 410.504 467.85C410.998 467.126 411.758 466.521 412.782 466.036C413.807 465.55 414.928 465.307 416.147 465.307C417.171 465.307 418.151 465.484 419.087 465.837C419.75 466.084 420.359 466.437 420.915 466.897L421.472 465.625ZM432.932 465.625H447.954L449.689 470.486L448.523 470.923C448.232 470.129 447.914 469.506 447.57 469.056C447.225 468.597 446.81 468.208 446.324 467.89C445.848 467.572 445.362 467.36 444.867 467.254C444.382 467.148 443.499 467.095 442.218 467.095H437.741V473.864H439.966C440.788 473.864 441.406 473.727 441.821 473.453C442.245 473.171 442.536 472.822 442.695 472.407C442.819 472.098 442.88 471.559 442.88 470.791V470.486H444.179V478.593H442.88V477.891C442.88 477.273 442.832 476.827 442.735 476.553C442.646 476.279 442.479 476.023 442.231 475.785C441.984 475.538 441.715 475.37 441.423 475.281C441.141 475.193 440.655 475.149 439.966 475.149H437.741V481.163C437.741 481.79 437.767 482.174 437.82 482.315C437.882 482.448 437.979 482.545 438.112 482.607C438.244 482.668 438.606 482.699 439.198 482.699H441.966C443.512 482.699 444.717 482.514 445.583 482.143C446.457 481.772 447.225 481.203 447.888 480.434C448.409 479.834 448.907 478.986 449.384 477.891L450.59 478.315L448.523 484.104H432.932V482.991H433.462C434.08 482.991 434.465 482.951 434.615 482.872C434.844 482.757 435.021 482.571 435.145 482.315C435.233 482.139 435.277 481.755 435.277 481.163V468.446C435.277 467.872 435.22 467.488 435.105 467.294C434.99 467.1 434.791 466.95 434.509 466.844C434.359 466.782 433.833 466.751 432.932 466.751V465.625ZM451.101 465.625H456.943L462.4 480.262L467.712 465.625H473.355V466.751H472.878C472.304 466.751 471.915 466.799 471.712 466.897C471.518 466.994 471.364 467.166 471.249 467.413C471.134 467.652 471.077 468.049 471.077 468.605V480.792C471.077 481.56 471.121 482.059 471.209 482.289C471.306 482.518 471.461 482.695 471.673 482.819C471.893 482.933 472.295 482.991 472.878 482.991H473.355V484.104H466.295V482.991H466.798C467.248 482.991 467.575 482.956 467.778 482.885C467.99 482.814 468.162 482.699 468.295 482.54C468.436 482.373 468.516 482.2 468.533 482.024C468.577 481.662 468.599 481.379 468.599 481.176V467.572L462.572 484.104H461.261L455.181 467.811V480.911C455.181 481.573 455.238 482.024 455.353 482.262C455.468 482.492 455.645 482.673 455.883 482.805C456.13 482.929 456.567 482.991 457.194 482.991H457.618V484.104H451.101V482.991H451.472C452.099 482.991 452.545 482.925 452.81 482.792C453.084 482.66 453.278 482.474 453.393 482.236C453.508 481.989 453.565 481.507 453.565 480.792V468.725C453.565 468.053 453.516 467.612 453.419 467.4C453.322 467.179 453.159 467.016 452.929 466.91C452.708 466.804 452.311 466.751 451.737 466.751H451.101V465.625ZM496.618 465.625H497.585L499.095 471.321L497.903 471.731C497.108 469.93 496.194 468.645 495.161 467.877C494.128 467.108 492.958 466.724 491.651 466.724C489.77 466.724 488.193 467.506 486.922 469.069C485.65 470.632 485.014 472.495 485.014 474.659C485.014 476.213 485.337 477.639 485.981 478.937C486.635 480.236 487.505 481.225 488.591 481.905C489.677 482.585 490.829 482.925 492.048 482.925C492.834 482.925 493.58 482.783 494.287 482.501C495.002 482.209 495.58 481.865 496.022 481.467C496.349 481.167 496.57 480.836 496.684 480.474C496.799 480.112 496.852 479.609 496.843 478.964V478.09C496.843 477.392 496.759 476.898 496.592 476.606C496.433 476.315 496.203 476.107 495.903 475.984C495.673 475.886 495.055 475.838 494.048 475.838V474.725H501.546V475.838H500.936C500.415 475.838 500.058 475.891 499.863 475.997C499.678 476.094 499.541 476.248 499.453 476.46C499.364 476.672 499.32 477.087 499.32 477.706V484.104H498.009L497.307 482.487C496.565 483.026 495.775 483.446 494.936 483.746C493.682 484.196 492.441 484.421 491.214 484.421C488.732 484.421 486.604 483.512 484.829 481.693C483.063 479.865 482.18 477.591 482.18 474.871C482.18 472.169 483.076 469.899 484.869 468.062C486.661 466.225 488.807 465.307 491.306 465.307C491.933 465.307 492.551 465.369 493.161 465.492C493.77 465.616 494.326 465.793 494.83 466.022C495.21 466.19 495.651 466.464 496.154 466.844L496.618 465.625ZM502.401 465.625H517.423L519.158 470.486L517.992 470.923C517.701 470.129 517.383 469.506 517.039 469.056C516.694 468.597 516.279 468.208 515.793 467.89C515.317 467.572 514.831 467.36 514.336 467.254C513.851 467.148 512.968 467.095 511.687 467.095H507.21V473.864H509.435C510.256 473.864 510.875 473.727 511.29 473.453C511.714 473.171 512.005 472.822 512.164 472.407C512.288 472.098 512.349 471.559 512.349 470.791V470.486H513.648V478.593H512.349V477.891C512.349 477.273 512.301 476.827 512.204 476.553C512.115 476.279 511.948 476.023 511.7 475.785C511.453 475.538 511.184 475.37 510.892 475.281C510.61 475.193 510.124 475.149 509.435 475.149H507.21V481.163C507.21 481.79 507.236 482.174 507.289 482.315C507.351 482.448 507.448 482.545 507.581 482.607C507.713 482.668 508.075 482.699 508.667 482.699H511.435C512.981 482.699 514.186 482.514 515.052 482.143C515.926 481.772 516.694 481.203 517.356 480.434C517.878 479.834 518.376 478.986 518.853 477.891L520.059 478.315L517.992 484.104H502.401V482.991H502.931C503.549 482.991 503.934 482.951 504.084 482.872C504.313 482.757 504.49 482.571 504.614 482.315C504.702 482.139 504.746 481.755 504.746 481.163V468.446C504.746 467.872 504.689 467.488 504.574 467.294C504.459 467.1 504.26 466.95 503.978 466.844C503.828 466.782 503.302 466.751 502.401 466.751V465.625ZM530.412 465.307C532.099 465.307 533.622 465.713 534.982 466.526C536.457 467.4 537.587 468.535 538.373 469.93C539.168 471.325 539.565 472.941 539.565 474.778C539.565 477.622 538.682 479.94 536.916 481.732C535.15 483.525 532.898 484.421 530.16 484.421C527.105 484.421 524.685 483.344 522.901 481.189C521.444 479.432 520.716 477.33 520.716 474.884C520.716 473.065 521.126 471.436 521.948 469.996C522.769 468.548 523.935 467.404 525.445 466.565C526.955 465.726 528.611 465.307 530.412 465.307ZM530.412 466.738C529.034 466.738 527.851 467.056 526.862 467.691C525.873 468.318 525.078 469.246 524.478 470.473C523.886 471.701 523.59 473.215 523.59 475.017C523.59 476.739 523.882 478.2 524.464 479.401C525.056 480.593 525.846 481.507 526.836 482.143C527.825 482.779 528.937 483.097 530.174 483.097C531.401 483.097 532.487 482.788 533.432 482.17C534.377 481.543 535.159 480.562 535.777 479.229C536.395 477.887 536.704 476.399 536.704 474.765C536.704 473.105 536.395 471.586 535.777 470.208C535.247 469.025 534.545 468.151 533.671 467.585C532.796 467.02 531.71 466.738 530.412 466.738ZM541.295 465.002H542.222L542.355 465.625H553.694L553.8 465.002H554.767L556.714 470.433L555.522 470.857C554.948 469.409 554.268 468.393 553.482 467.811C552.696 467.219 551.689 466.923 550.462 466.923C549.949 466.923 549.645 466.945 549.548 466.989C549.451 467.025 549.38 467.091 549.336 467.188C549.3 467.285 549.283 467.594 549.283 468.115V480.938C549.283 481.547 549.314 481.958 549.375 482.17C549.446 482.381 549.543 482.545 549.667 482.66C549.791 482.774 549.958 482.858 550.17 482.911C550.391 482.956 550.877 482.982 551.627 482.991V484.104H544.501V482.991C545.287 482.982 545.768 482.956 545.945 482.911C546.254 482.823 546.475 482.655 546.607 482.408C546.739 482.161 546.806 481.706 546.806 481.044V467.943C546.806 467.537 546.784 467.29 546.739 467.201C546.704 467.113 546.629 467.047 546.514 467.003C546.408 466.95 546.183 466.923 545.839 466.923C544.876 466.923 544.103 467.047 543.521 467.294C542.947 467.541 542.403 467.961 541.891 468.552C541.379 469.144 540.942 469.912 540.58 470.857L539.388 470.433L541.295 465.002ZM556.404 465.625H571.425L573.161 470.486L571.995 470.923C571.703 470.129 571.386 469.506 571.041 469.056C570.697 468.597 570.282 468.208 569.796 467.89C569.319 467.572 568.833 467.36 568.339 467.254C567.853 467.148 566.97 467.095 565.69 467.095H561.212V473.864H563.438C564.259 473.864 564.877 473.727 565.292 473.453C565.716 473.171 566.008 472.822 566.167 472.407C566.29 472.098 566.352 471.559 566.352 470.791V470.486H567.65V478.593H566.352V477.891C566.352 477.273 566.303 476.827 566.206 476.553C566.118 476.279 565.95 476.023 565.703 475.785C565.456 475.538 565.186 475.37 564.895 475.281C564.612 475.193 564.127 475.149 563.438 475.149H561.212V481.163C561.212 481.79 561.239 482.174 561.292 482.315C561.354 482.448 561.451 482.545 561.583 482.607C561.716 482.668 562.078 482.699 562.669 482.699H565.438C566.983 482.699 568.189 482.514 569.054 482.143C569.928 481.772 570.697 481.203 571.359 480.434C571.88 479.834 572.379 478.986 572.856 477.891L574.061 478.315L571.995 484.104H556.404V482.991H556.934C557.552 482.991 557.936 482.951 558.086 482.872C558.316 482.757 558.492 482.571 558.616 482.315C558.704 482.139 558.749 481.755 558.749 481.163V468.446C558.749 467.872 558.691 467.488 558.576 467.294C558.462 467.1 558.263 466.95 557.98 466.844C557.83 466.782 557.305 466.751 556.404 466.751V465.625ZM589.303 465.625H590.256L591.939 471.784L590.707 472.129C590.044 470.707 589.541 469.753 589.197 469.268C588.631 468.482 587.925 467.859 587.077 467.4C586.238 466.941 585.311 466.711 584.295 466.711C583.103 466.711 582.004 467.033 580.997 467.678C579.999 468.314 579.187 469.25 578.56 470.486C577.942 471.723 577.633 473.113 577.633 474.659C577.633 476.248 577.946 477.666 578.573 478.911C579.209 480.156 580.065 481.114 581.143 481.785C582.22 482.457 583.381 482.792 584.627 482.792C585.801 482.792 587.002 482.457 588.23 481.785C589.457 481.114 590.521 480.174 591.422 478.964L592.482 479.692C591.934 480.505 591.342 481.194 590.707 481.759C589.7 482.668 588.653 483.34 587.567 483.772C586.481 484.205 585.289 484.421 583.991 484.421C581.121 484.421 578.789 483.357 576.997 481.229C575.513 479.463 574.771 477.361 574.771 474.924C574.771 473.131 575.182 471.511 576.003 470.062C576.824 468.605 577.955 467.448 579.394 466.592C580.843 465.735 582.401 465.307 584.07 465.307C584.962 465.307 585.788 465.431 586.547 465.678C587.316 465.916 588.093 466.305 588.879 466.844L589.303 465.625ZM593.192 465.625H598.861L607.272 479.481V468.936C607.272 468.309 607.211 467.859 607.087 467.585C606.963 467.312 606.778 467.104 606.531 466.963C606.283 466.821 605.917 466.751 605.431 466.751H604.954V465.625H611.14V466.751H610.809C610.262 466.751 609.891 466.795 609.697 466.883C609.423 467.007 609.215 467.232 609.074 467.559C608.941 467.886 608.875 468.345 608.875 468.936V484.104H607.272L597.139 467.453V480.646C597.139 481.379 597.161 481.825 597.205 481.984C597.267 482.187 597.377 482.373 597.536 482.54C597.704 482.708 597.898 482.823 598.119 482.885C598.34 482.947 598.786 482.982 599.457 482.991V484.104H593.192V482.991H593.523C594.159 482.991 594.587 482.929 594.808 482.805C595.037 482.682 595.214 482.47 595.338 482.17C595.461 481.869 595.523 481.362 595.523 480.646V468.936C595.523 468.204 595.505 467.758 595.47 467.599C595.391 467.298 595.236 467.082 595.006 466.95C594.786 466.817 594.34 466.751 593.668 466.751H593.192V465.625ZM621.865 465.307C623.551 465.307 625.075 465.713 626.435 466.526C627.909 467.4 629.04 468.535 629.826 469.93C630.62 471.325 631.018 472.941 631.018 474.778C631.018 477.622 630.135 479.94 628.369 481.732C626.602 483.525 624.35 484.421 621.613 484.421C618.557 484.421 616.138 483.344 614.354 481.189C612.897 479.432 612.168 477.33 612.168 474.884C612.168 473.065 612.579 471.436 613.4 469.996C614.221 468.548 615.387 467.404 616.897 466.565C618.407 465.726 620.063 465.307 621.865 465.307ZM621.865 466.738C620.487 466.738 619.304 467.056 618.315 467.691C617.326 468.318 616.531 469.246 615.93 470.473C615.339 471.701 615.043 473.215 615.043 475.017C615.043 476.739 615.334 478.2 615.917 479.401C616.509 480.593 617.299 481.507 618.288 482.143C619.277 482.779 620.39 483.097 621.626 483.097C622.854 483.097 623.94 482.788 624.885 482.17C625.83 481.543 626.611 480.562 627.229 479.229C627.847 477.887 628.157 476.399 628.157 474.765C628.157 473.105 627.847 471.586 627.229 470.208C626.699 469.025 625.997 468.151 625.123 467.585C624.249 467.02 623.163 466.738 621.865 466.738ZM632.337 465.625H639.503V466.751H638.841C638.329 466.751 637.967 466.799 637.755 466.897C637.543 466.994 637.388 467.135 637.291 467.32C637.194 467.506 637.146 467.837 637.146 468.314V481.203C637.146 481.794 637.168 482.147 637.212 482.262C637.265 482.421 637.38 482.536 637.556 482.607C637.68 482.66 638.037 482.686 638.629 482.686H639.623C640.762 482.686 641.751 482.523 642.59 482.196C643.429 481.86 644.153 481.379 644.762 480.752C645.372 480.116 645.959 479.171 646.524 477.917L647.703 478.315L645.636 484.104H632.337V482.991H632.92C633.485 482.991 633.865 482.942 634.059 482.845C634.253 482.748 634.404 482.589 634.51 482.368C634.615 482.139 634.668 481.75 634.668 481.203V468.632C634.668 467.996 634.62 467.572 634.523 467.36C634.426 467.139 634.284 466.985 634.099 466.897C633.913 466.799 633.52 466.751 632.92 466.751H632.337V465.625ZM657.142 465.307C658.829 465.307 660.352 465.713 661.712 466.526C663.187 467.4 664.317 468.535 665.103 469.93C665.898 471.325 666.295 472.941 666.295 474.778C666.295 477.622 665.412 479.94 663.646 481.732C661.88 483.525 659.628 484.421 656.89 484.421C653.835 484.421 651.415 483.344 649.631 481.189C648.174 479.432 647.446 477.33 647.446 474.884C647.446 473.065 647.856 471.436 648.678 469.996C649.499 468.548 650.665 467.404 652.175 466.565C653.685 465.726 655.341 465.307 657.142 465.307ZM657.142 466.738C655.765 466.738 654.581 467.056 653.592 467.691C652.603 468.318 651.808 469.246 651.208 470.473C650.616 471.701 650.32 473.215 650.32 475.017C650.32 476.739 650.612 478.2 651.195 479.401C651.786 480.593 652.577 481.507 653.566 482.143C654.555 482.779 655.667 483.097 656.904 483.097C658.131 483.097 659.217 482.788 660.162 482.17C661.107 481.543 661.889 480.562 662.507 479.229C663.125 477.887 663.434 476.399 663.434 474.765C663.434 473.105 663.125 471.586 662.507 470.208C661.977 469.025 661.275 468.151 660.401 467.585C659.526 467.02 658.44 466.738 657.142 466.738ZM682.225 465.625H683.192L684.702 471.321L683.51 471.731C682.716 469.93 681.802 468.645 680.768 467.877C679.735 467.108 678.565 466.724 677.258 466.724C675.377 466.724 673.801 467.506 672.529 469.069C671.257 470.632 670.622 472.495 670.622 474.659C670.622 476.213 670.944 477.639 671.589 478.937C672.242 480.236 673.112 481.225 674.198 481.905C675.284 482.585 676.437 482.925 677.655 482.925C678.441 482.925 679.188 482.783 679.894 482.501C680.609 482.209 681.188 481.865 681.629 481.467C681.956 481.167 682.177 480.836 682.292 480.474C682.406 480.112 682.459 479.609 682.451 478.964V478.09C682.451 477.392 682.367 476.898 682.199 476.606C682.04 476.315 681.81 476.107 681.51 475.984C681.28 475.886 680.662 475.838 679.656 475.838V474.725H687.153V475.838H686.544C686.023 475.838 685.665 475.891 685.471 475.997C685.285 476.094 685.148 476.248 685.06 476.46C684.972 476.672 684.928 477.087 684.928 477.706V484.104H683.616L682.914 482.487C682.172 483.026 681.382 483.446 680.543 483.746C679.289 484.196 678.048 484.421 676.821 484.421C674.339 484.421 672.211 483.512 670.436 481.693C668.67 479.865 667.787 477.591 667.787 474.871C667.787 472.169 668.683 469.899 670.476 468.062C672.269 466.225 674.414 465.307 676.914 465.307C677.541 465.307 678.159 465.369 678.768 465.492C679.377 465.616 679.934 465.793 680.437 466.022C680.817 466.19 681.258 466.464 681.762 466.844L682.225 465.625ZM687.784 465.625H694.857V466.751H694.314C693.802 466.751 693.431 466.821 693.201 466.963C692.972 467.104 692.804 467.307 692.698 467.572C692.592 467.828 692.539 468.332 692.539 469.082V480.991C692.539 481.591 692.596 482.019 692.711 482.276C692.826 482.523 692.985 482.704 693.188 482.819C693.4 482.933 693.775 482.991 694.314 482.991H694.857V484.104H687.784V482.991H688.366C688.887 482.991 689.254 482.933 689.466 482.819C689.687 482.695 689.846 482.523 689.943 482.302C690.04 482.072 690.088 481.635 690.088 480.991V468.804C690.088 468.124 690.04 467.669 689.943 467.44C689.846 467.201 689.687 467.029 689.466 466.923C689.254 466.808 688.887 466.751 688.366 466.751H687.784V465.625ZM702.733 465.625H704.919L710.655 481.07C710.937 481.847 711.22 482.364 711.502 482.62C711.794 482.867 712.182 482.991 712.668 482.991H712.959V484.104H706.376V482.991C706.588 482.973 706.796 482.964 706.999 482.964C707.423 482.964 707.701 482.92 707.833 482.832C708.089 482.664 708.217 482.452 708.217 482.196C708.217 482.011 708.094 481.556 707.846 480.832L706.628 477.255H699.925L698.495 481.256C698.344 481.671 698.269 481.958 698.269 482.117C698.269 482.293 698.313 482.448 698.402 482.58C698.499 482.713 698.627 482.814 698.786 482.885C698.945 482.947 699.201 482.978 699.554 482.978C699.793 482.978 699.987 482.982 700.137 482.991V484.104H694.613V482.991C695.126 482.991 695.492 482.942 695.713 482.845C695.942 482.739 696.141 482.576 696.309 482.355C696.477 482.125 696.697 481.649 696.971 480.924L702.733 465.625ZM700.415 475.957H706.124L703.263 468.009L700.415 475.957ZM725.406 465.625H726.359L727.777 471.321L726.558 471.692C725.781 470.093 724.748 468.835 723.459 467.917C722.399 467.148 721.224 466.764 719.935 466.764C719.158 466.764 718.46 466.905 717.842 467.188C717.224 467.462 716.76 467.819 716.451 468.261C716.142 468.702 715.988 469.153 715.988 469.612C715.988 470.027 716.107 470.429 716.345 470.817C716.584 471.206 716.946 471.55 717.431 471.851C717.917 472.142 718.712 472.451 719.816 472.778L723.273 473.798C723.697 473.922 724.311 474.16 725.114 474.513C725.927 474.866 726.558 475.242 727.009 475.639C727.459 476.028 727.812 476.509 728.068 477.083C728.324 477.648 728.452 478.262 728.452 478.924C728.452 480.39 727.808 481.675 726.518 482.779C725.238 483.874 723.578 484.421 721.538 484.421C720.487 484.421 719.546 484.271 718.716 483.971C717.886 483.662 716.99 483.119 716.027 482.342L715.418 484.104H714.491L713.259 477.467L714.491 477.215C714.941 478.443 715.537 479.485 716.279 480.342C717.03 481.198 717.855 481.847 718.756 482.289C719.666 482.721 720.588 482.938 721.525 482.938C722.796 482.938 723.909 482.554 724.863 481.785C725.657 481.141 726.055 480.381 726.055 479.507C726.055 478.703 725.768 478.046 725.194 477.533C724.611 477.021 723.569 476.544 722.068 476.103L718.756 475.149C716.902 474.61 715.595 473.922 714.835 473.083C714.076 472.244 713.696 471.281 713.696 470.195C713.696 469.347 713.943 468.566 714.438 467.85C714.932 467.126 715.692 466.521 716.716 466.036C717.741 465.55 718.862 465.307 720.081 465.307C721.105 465.307 722.085 465.484 723.021 465.837C723.684 466.084 724.293 466.437 724.849 466.897L725.406 465.625Z" fill="#1198DC"/>
</svg>
